<?xml version="1.0" standalone="no"?>
<!DOCTYPE svg PUBLIC "-//W3C//DTD SVG 20010904//EN"
 "http://www.w3.org/TR/2001/REC-SVG-20010904/DTD/svg10.dtd">
<svg version="1.0" xmlns="http://www.w3.org/2000/svg"
 width="200.000000pt" height="200.000000pt" viewBox="0 0 200.000000 200.000000"
 preserveAspectRatio="xMidYMid meet">

<g transform="translate(0.000000,200.000000) scale(0.100000,-0.100000)"
fill="#000000" stroke="none">
<path d="M848 1903 c-8 -10 -59 -97 -113 -193 -53 -96 -99 -177 -101 -179 -1
-2 -29 6 -62 17 -40 13 -64 17 -76 10 -9 -5 -36 -48 -60 -96 l-44 -87 14 -130
c7 -71 13 -223 13 -336 l1 -206 -50 -89 c-27 -49 -50 -96 -50 -105 0 -8 11
-46 23 -85 l24 -69 42 -3 41 -3 56 -112 c31 -62 61 -115 67 -119 6 -4 86 -25
177 -48 l166 -41 105 41 c57 23 112 48 121 57 15 13 18 12 29 -9 6 -13 17 -26
23 -30 15 -10 108 -10 123 0 21 13 273 570 267 587 -4 9 0 21 9 28 21 16 330
705 323 722 -7 18 -227 318 -240 327 -6 4 -101 44 -211 88 l-200 80 -201 0
c-179 0 -203 -2 -216 -17z m596 -146 l180 -73 98 -134 c54 -73 98 -138 98
-144 0 -6 -16 -48 -37 -94 -25 -57 -40 -79 -47 -72 -6 6 -80 10 -191 10 -222
0 -213 -7 -182 149 18 93 19 104 4 118 -10 10 -24 13 -40 9 -19 -4 -31 -24
-63 -107 -23 -58 -47 -105 -58 -111 -16 -9 -33 4 -115 85 -89 88 -102 97 -176
123 -45 15 -88 25 -96 22 -8 -3 -75 -110 -149 -238 -74 -128 -142 -242 -152
-254 -17 -21 -17 -20 -18 24 0 39 22 85 198 402 l197 357 185 0 185 0 179 -72z
m-856 -302 c7 -7 -92 -174 -100 -169 -17 11 -7 75 19 129 25 51 30 55 53 50
14 -4 26 -8 28 -10z m337 -118 c10 -51 22 -100 27 -109 11 -23 41 -23 113 2
l59 20 21 -20 c27 -25 36 -25 85 0 l38 20 21 -36 c12 -20 29 -38 39 -41 11 -2
25 -26 37 -61 28 -79 46 -80 154 -2 78 56 121 74 121 50 0 -10 -41 -116 -80
-205 -12 -27 -24 -45 -28 -38 -4 6 -43 29 -88 51 -59 30 -103 44 -165 53 l-84
12 -65 63 c-62 60 -69 63 -163 88 l-98 26 -87 -20 c-47 -10 -87 -18 -88 -17
-1 1 34 64 78 139 79 136 79 137 107 127 27 -9 30 -17 46 -102z m110 -25 c-20
-4 -20 -4 -30 28 l-7 25 27 -25 c22 -21 24 -26 10 -28z m-96 -203 c68 -19 83
-27 141 -84 l65 -64 90 -12 c64 -9 109 -22 156 -45 l65 -32 22 -101 21 -100
-116 -250 c-90 -194 -120 -251 -134 -251 -11 0 -21 10 -25 25 -5 18 19 78 95
240 99 212 101 217 101 289 0 42 -5 79 -12 89 -7 9 -74 39 -148 68 -75 28
-178 77 -233 110 -54 32 -107 59 -118 59 -32 0 -122 -40 -144 -65 -12 -12 -83
-136 -158 -277 -114 -212 -141 -257 -162 -260 -19 -4 -26 0 -34 23 -8 25 7 56
157 326 l167 298 60 17 c33 9 62 17 64 17 3 1 39 -8 80 -20z m-400 -196 c-18
-32 -34 -60 -36 -62 -1 -2 -3 16 -3 40 0 37 4 47 28 61 44 26 45 21 11 -39z
m456 6 c84 -50 123 -67 273 -123 69 -27 72 -29 71 -59 -1 -75 7 -77 -267 55
-138 67 -252 125 -252 129 0 8 67 48 82 49 3 0 45 -23 93 -51z m38 -205 c139
-64 255 -119 259 -122 9 -9 -72 -183 -83 -177 -4 3 -49 -13 -100 -35 -51 -22
-100 -40 -109 -40 -8 0 -61 15 -115 33 l-100 33 -59 115 -59 115 52 97 c29 53
55 97 57 97 3 0 119 -52 257 -116z m-358 -274 l49 -100 142 -47 142 -47 52 22
c29 12 55 20 57 18 2 -2 -7 -26 -20 -53 -23 -45 -30 -51 -107 -83 l-83 -34
-141 35 -141 34 -49 95 -49 95 44 82 c24 46 46 83 49 83 3 0 28 -45 55 -100z"/>
</g>
</svg>
