<?xml version="1.0" standalone="no"?>
<!DOCTYPE svg PUBLIC "-//W3C//DTD SVG 20010904//EN"
 "http://www.w3.org/TR/2001/REC-SVG-20010904/DTD/svg10.dtd">
<svg version="1.0" xmlns="http://www.w3.org/2000/svg"
 width="282.000000pt" height="300.000000pt" viewBox="0 0 282.000000 300.000000"
 preserveAspectRatio="xMidYMid meet">

<g transform="translate(0.000000,300.000000) scale(0.100000,-0.100000)"
fill="#000000" stroke="none">
<path d="M1481 2984 c-64 -17 -167 -62 -180 -78 -5 -6 -19 -63 -30 -126 -12
-63 -24 -127 -27 -142 -6 -24 1 -30 89 -82 52 -31 100 -56 106 -56 6 0 12 17
12 38 l2 37 7 -43 c7 -44 21 -62 51 -62 8 0 71 16 139 35 68 19 138 35 154 35
27 0 31 -4 33 -28 0 -15 4 -76 8 -136 l7 -108 24 23 c23 23 23 29 30 276 l7
252 -30 29 c-44 40 -134 86 -240 122 -104 34 -91 33 -162 14z m-75 -385 c10
-17 -12 -9 -66 24 -29 17 -55 38 -58 45 -4 12 114 -53 124 -69z m304 -1 c-140
-38 -182 -48 -207 -47 -22 0 -17 4 22 14 28 8 70 21 95 29 25 8 63 15 85 14
l40 0 -35 -10z"/>
<path d="M1944 2599 c-4 -7 -9 -46 -11 -88 l-3 -76 16 35 c21 43 30 125 16
134 -6 3 -14 1 -18 -5z"/>
<path d="M1250 2466 l0 -103 52 -7 c55 -8 68 0 68 40 0 11 5 25 12 32 6 6 10
13 7 14 -2 2 -17 10 -33 18 -18 9 -34 28 -41 49 -10 31 -38 61 -57 61 -4 0 -8
-47 -8 -104z"/>
<path d="M1342 2498 c11 -16 26 -23 49 -24 27 -2 28 -1 6 3 -15 2 -32 13 -37
24 -6 10 -16 19 -22 19 -6 0 -5 -9 4 -22z"/>
<path d="M1735 2506 c-26 -7 -36 -14 -27 -19 6 -5 12 -13 12 -18 0 -6 -4 -8
-9 -5 -5 3 -12 -1 -15 -9 -3 -9 -18 -20 -33 -26 -22 -8 -32 -6 -54 11 -31 22
-49 26 -49 10 0 -5 6 -10 13 -10 18 0 47 -32 47 -52 0 -11 15 -17 60 -21 69
-6 102 -24 131 -70 l21 -32 -6 40 c-3 22 -6 79 -6 128 0 98 -1 99 -85 73z"/>
<path d="M1630 2469 c0 -5 5 -7 10 -4 6 3 10 8 10 11 0 2 -4 4 -10 4 -5 0 -10
-5 -10 -11z"/>
<path d="M1653 2463 c-9 -15 -13 -16 -24 -5 -16 14 -29 16 -29 2 0 -5 11 -12
24 -16 25 -6 66 10 66 26 0 16 -24 11 -37 -7z"/>
<path d="M1965 2453 c-15 -22 -16 -32 -7 -56 9 -25 8 -34 -13 -65 -13 -21 -42
-82 -64 -137 -31 -80 -41 -119 -47 -193 -3 -51 -10 -95 -14 -97 -5 -3 -36 -8
-69 -11 -43 -5 -61 -3 -61 5 0 19 -22 12 -92 -30 -66 -40 -70 -41 -131 -35
-101 11 -135 24 -181 69 l-43 42 -8 95 c-5 75 -14 270 -15 358 0 21 -53 7
-145 -38 -86 -42 -152 -100 -182 -158 -27 -55 -23 -157 10 -261 15 -46 26 -86
24 -88 -3 -2 -13 10 -24 28 l-20 31 -26 -33 c-27 -37 -60 -99 -55 -104 2 -1
32 -17 68 -35 64 -32 145 -85 206 -135 l31 -25 42 46 43 45 -44 28 c-58 37
-92 79 -139 172 -56 113 -48 130 13 25 62 -107 112 -160 183 -192 69 -32 222
-71 314 -80 l73 -7 -7 43 c-8 47 8 50 20 3 13 -51 18 -53 169 -53 148 1 272
17 323 43 20 11 48 46 84 108 33 57 83 123 130 171 81 83 131 110 58 31 -24
-27 -68 -80 -97 -120 l-53 -72 22 -45 c11 -25 37 -59 56 -76 30 -27 40 -30 81
-26 26 3 76 8 112 11 68 6 211 39 242 56 10 5 18 20 18 33 0 30 -52 131 -90
176 l-30 35 -20 -25 c-24 -30 -25 -18 -5 65 22 92 19 181 -9 241 -55 119 -234
209 -496 249 -121 19 -115 20 -135 -12z"/>
<path d="M1415 2444 c-28 -44 -31 -98 -6 -123 11 -11 25 -21 29 -21 4 0 32 16
62 35 30 19 62 35 72 35 9 0 20 5 23 10 10 16 -51 67 -87 73 -18 3 -42 8 -54
12 -16 5 -25 0 -39 -21z"/>
<path d="M1928 2394 c-5 -4 -8 -16 -8 -28 0 -14 3 -17 11 -9 6 6 9 19 7 28 -1
9 -6 13 -10 9z"/>
<path d="M1243 2307 c3 -17 9 -99 13 -182 l7 -150 15 55 c12 45 12 69 3 133
-7 42 -9 81 -6 87 3 5 24 1 48 -10 70 -32 154 -27 247 15 43 19 87 35 98 35
55 0 89 -124 58 -209 -9 -25 -16 -73 -16 -107 l0 -61 45 7 c25 4 47 9 50 12 3
2 6 67 7 144 2 153 -6 196 -48 235 -23 21 -37 24 -120 27 -92 4 -95 3 -136
-27 -50 -37 -83 -39 -117 -7 -19 17 -42 25 -90 30 l-63 6 5 -33z"/>
<path d="M1634 2255 c-10 -8 -14 -15 -8 -15 6 0 17 7 24 15 16 19 9 19 -16 0z"/>
<path d="M1857 2242 c-10 -10 -17 -32 -16 -48 0 -27 1 -27 20 15 22 49 20 60
-4 33z"/>
<path d="M1644 2239 c-3 -6 -15 -9 -25 -6 -10 3 -49 -6 -86 -19 -77 -27 -121
-29 -178 -9 -21 8 -40 13 -41 12 -1 -1 5 -23 13 -49 12 -43 33 -62 46 -40 6 9
220 8 234 -1 6 -4 23 9 37 28 15 19 33 35 41 35 19 0 27 16 20 40 -7 22 -49
28 -61 9z"/>
<path d="M1291 2194 c0 -11 3 -14 6 -6 3 7 2 16 -1 19 -3 4 -6 -2 -5 -13z"/>
<path d="M1688 2174 c-16 -8 -28 -18 -28 -22 0 -17 -42 -52 -53 -45 -17 11
-220 11 -234 0 -7 -5 -20 -7 -28 -3 -11 4 -15 -1 -15 -18 0 -20 8 -24 83 -41
45 -10 114 -20 153 -23 l72 -4 12 36 c9 28 17 36 36 36 26 0 38 27 32 73 -3
24 -4 25 -30 11z"/>
<path d="M1298 2055 c-6 -89 -4 -114 8 -132 22 -35 70 -54 149 -60 70 -6 75
-4 136 31 35 21 71 41 79 45 9 5 16 25 18 50 l3 41 -36 -21 c-34 -21 -41 -21
-118 -10 -45 6 -114 19 -152 29 l-70 17 -5 60 c-5 55 -6 50 -12 -50z m151 -77
c13 -5 22 -10 20 -12 -8 -9 -130 11 -141 22 -9 9 2 10 43 5 30 -3 65 -10 78
-15z"/>
<path d="M1665 2060 c-3 -5 -2 -10 4 -10 5 0 13 5 16 10 3 6 2 10 -4 10 -5 0
-13 -4 -16 -10z"/>
<path d="M766 1732 c-15 -18 -14 -19 24 -31 28 -8 45 -21 55 -42 19 -36 15
-44 -31 -59 -30 -10 -38 -9 -55 6 -11 9 -23 31 -28 48 l-8 31 -12 -29 c-17
-44 -11 -57 47 -97 56 -39 211 -109 242 -109 10 0 37 21 59 47 l41 46 -27 30
c-46 48 -251 177 -281 177 -5 0 -16 -8 -26 -18z m231 -144 c13 -12 23 -29 23
-38 0 -29 -39 -55 -77 -51 -10 1 -53 60 -53 74 0 3 7 13 16 21 22 23 64 20 91
-6z"/>
<path d="M915 1580 c-10 -16 23 -60 43 -60 18 0 42 18 42 31 0 29 -70 52 -85
29z"/>
<path d="M81 1719 c-35 -4 -66 -10 -68 -13 -3 -3 19 -44 48 -92 l54 -86 223
-105 c123 -57 229 -102 236 -100 17 7 107 170 98 178 -15 15 -311 159 -396
193 -93 38 -95 38 -195 25z"/>
<path d="M750 1671 c0 -10 8 -29 18 -41 15 -18 21 -20 45 -11 15 6 27 14 27
19 0 15 -33 39 -62 46 -23 5 -28 3 -28 -13z"/>
<path d="M2718 1659 c-72 -28 -237 -59 -317 -59 -39 0 -71 -4 -71 -8 0 -27 24
-129 32 -139 15 -18 190 -17 261 2 62 16 138 51 149 69 4 6 8 38 8 71 0 82 -5
87 -62 64z m-3 -65 c20 -21 16 -73 -8 -88 -25 -16 -71 12 -75 46 -6 48 49 76
83 42z m-231 -53 c10 -11 16 -29 14 -42 -8 -54 -90 -50 -96 6 -6 50 48 73 82
36z"/>
<path d="M2662 1578 c-18 -18 -15 -36 8 -48 24 -13 40 -6 40 19 0 16 -18 41
-30 41 -3 0 -11 -5 -18 -12z"/>
<path d="M2424 1526 c-10 -26 4 -48 28 -44 17 2 23 10 23 28 0 18 -6 26 -23
28 -13 2 -25 -3 -28 -12z"/>
<path d="M1310 1612 c0 -23 39 -50 118 -81 l53 -21 84 28 83 28 49 -28 c26
-16 77 -37 112 -48 67 -21 65 -22 199 17 45 12 55 20 73 55 11 22 18 42 15 45
-2 3 -22 -1 -43 -9 -28 -9 -104 -13 -293 -13 -211 0 -269 3 -339 19 -47 10
-91 20 -98 23 -8 3 -13 -3 -13 -15z"/>
<path d="M674 1559 c-3 -6 -2 -15 4 -21 13 -13 32 -2 32 18 0 16 -26 19 -36 3z"/>
<path d="M1296 1547 c-3 -12 -6 -57 -6 -100 0 -90 11 -107 96 -150 44 -22 145
-57 166 -57 5 0 -15 30 -43 68 -29 37 -63 91 -77 121 -24 52 -24 55 -7 68 18
13 18 13 0 13 -10 0 -42 13 -71 30 l-52 29 -6 -22z m69 -112 c0 -10 -6 -20
-12 -22 -8 -3 -13 5 -13 22 0 17 5 25 13 23 6 -3 12 -13 12 -23z"/>
<path d="M714 1515 c-9 -14 -14 -28 -11 -31 3 -3 13 8 22 25 19 37 12 41 -11
6z"/>
<path d="M1533 1506 c-105 -35 -104 -33 -47 -123 42 -67 171 -213 188 -213 18
0 196 244 196 270 0 3 -23 12 -52 20 -29 7 -81 28 -116 46 -36 19 -68 33 -71
33 -3 -1 -48 -16 -98 -33z m-6 -62 c7 -20 -17 -37 -34 -23 -15 13 -6 39 13 39
8 0 17 -7 21 -16z m278 -24 c4 -6 1 -18 -6 -26 -11 -13 -14 -13 -27 0 -8 8
-11 19 -8 25 9 14 33 14 41 1z m-217 -87 c-2 -10 -10 -18 -18 -18 -8 0 -16 8
-18 18 -2 12 3 17 18 17 15 0 20 -5 18 -17z m172 -12 c0 -24 -18 -37 -32 -23
-8 8 -7 16 2 27 17 21 30 19 30 -4z m-82 -78 c5 -17 -26 -29 -40 -15 -6 6 -7
15 -3 22 9 14 37 9 43 -7z"/>
<path d="M741 1477 c-47 -97 -13 -149 111 -171 43 -8 55 5 34 35 -11 17 -12
27 -3 48 18 43 30 49 25 14 -5 -38 16 -68 55 -77 23 -6 29 -3 37 20 18 46 0
75 -56 94 -27 10 -77 31 -111 49 -34 17 -64 31 -67 31 -2 0 -14 -19 -25 -43z"/>
<path d="M2010 1480 c-14 -5 -44 -14 -67 -20 -27 -7 -44 -18 -48 -30 -3 -11
-33 -60 -66 -110 -32 -50 -59 -93 -59 -96 0 -11 219 25 273 45 26 10 27 12 27
93 0 127 -5 137 -60 118z m-33 -86 c8 -20 -13 -42 -27 -28 -12 12 -3 44 11 44
5 0 12 -7 16 -16z"/>
<path d="M2718 1460 c-62 -33 -148 -50 -250 -51 -88 0 -98 -2 -98 -18 0 -10
-20 -35 -45 -55 -75 -62 -80 -146 -13 -218 l31 -33 13 31 c15 36 58 74 85 74
39 0 49 -26 49 -129 0 -111 8 -127 58 -116 55 12 94 75 107 170 14 106 20 114
25 32 l5 -78 27 42 c15 24 31 64 34 91 7 55 24 55 25 0 l1 -37 25 53 25 53
-23 104 c-12 59 -27 105 -33 105 -6 -1 -28 -10 -48 -20z"/>
<path d="M633 1356 c-35 -62 -63 -116 -63 -120 0 -3 6 -6 13 -6 16 0 96 137
103 176 3 16 7 37 10 47 10 33 -2 15 -63 -97z"/>
<path d="M660 1289 c-38 -71 -34 -78 46 -109 42 -15 60 -18 75 -10 17 10 59
78 59 98 0 4 -20 13 -44 20 -24 6 -57 23 -74 36 l-29 26 -33 -61z"/>
<path d="M1271 1278 c-10 -24 -22 -54 -26 -68 -7 -23 -6 -23 18 5 32 38 44 26
30 -28 -11 -38 -10 -43 9 -58 23 -18 223 -105 264 -115 l24 -6 0 100 0 100
-42 7 c-58 10 -156 47 -207 79 -22 14 -43 26 -46 26 -3 0 -14 -19 -24 -42z"/>
<path d="M938 1288 c16 -16 15 -57 -3 -92 -17 -33 -12 -45 13 -30 32 20 28
134 -5 134 -13 0 -14 -3 -5 -12z"/>
<path d="M893 1277 c-13 -5 -23 -15 -23 -21 0 -7 -9 -29 -20 -51 -24 -47 -24
-45 -2 -45 34 1 82 58 82 97 0 28 -9 33 -37 20z"/>
<path d="M2000 1228 c-36 -11 -107 -22 -159 -25 -84 -5 -97 -9 -126 -35 -18
-15 -36 -28 -41 -28 -4 0 -21 12 -36 27 l-29 28 3 -95 3 -94 32 -7 c18 -3 71
0 119 7 79 13 95 20 200 85 106 67 114 74 114 103 0 50 -8 54 -80 34z"/>
<path d="M1240 1134 c-14 -35 -11 -200 4 -249 11 -39 13 -40 59 -42 27 -1 73
-14 104 -28 30 -14 57 -25 58 -25 1 0 3 12 3 26 0 14 18 52 40 84 23 32 43 63
44 70 2 6 -33 26 -77 44 -161 66 -228 106 -218 132 3 8 2 14 -1 14 -4 0 -11
-12 -16 -26z m142 -224 c14 0 39 5 55 10 l28 10 -28 -25 c-15 -14 -34 -25 -42
-25 -28 0 -64 20 -75 41 -12 21 -11 21 11 5 13 -9 36 -16 51 -16z"/>
<path d="M1961 1049 c-55 -35 -112 -64 -135 -68 l-40 -6 29 -23 c29 -23 65
-70 65 -85 0 -5 -23 11 -50 34 -28 23 -52 40 -54 38 -2 -2 -6 -37 -8 -78 l-3
-74 50 -17 c104 -35 102 -35 125 16 11 26 36 64 54 85 22 24 42 63 55 104 21
67 28 136 14 134 -5 0 -50 -27 -102 -60z"/>
<path d="M2018 853 c-44 -47 -73 -102 -60 -115 5 -5 40 -8 78 -6 l68 3 7 33
c4 18 17 44 30 58 12 13 21 26 18 28 -3 2 -99 36 -104 36 0 0 -17 -17 -37 -37z"/>
<path d="M2168 823 c-20 -23 -38 -58 -38 -74 0 -15 101 -3 112 14 16 25 8 54
-17 65 -34 16 -39 15 -57 -5z"/>
<path d="M1205 799 l-50 -33 50 -7 c63 -8 105 -29 139 -70 l26 -31 53 33 c28
18 53 34 55 35 2 1 -1 11 -7 22 -15 28 -107 71 -167 78 -43 5 -55 2 -99 -27z"/>
<path d="M1750 772 c0 -31 152 -72 267 -72 90 0 223 19 223 32 0 6 -8 7 -17 4
-36 -14 -180 -27 -233 -21 -76 8 -147 25 -197 46 -24 10 -43 15 -43 11z"/>
<path d="M1101 716 c-32 -34 -21 -62 27 -70 54 -9 222 -7 222 2 0 5 -12 20
-27 35 -64 60 -180 77 -222 33z"/>
<path d="M1415 663 l-60 -38 -127 1 c-70 0 -125 -3 -122 -8 3 -4 60 -8 126 -8
l122 0 63 41 c55 36 71 49 60 49 -1 0 -29 -17 -62 -37z"/>
<path d="M1170 563 c-91 -16 -98 -21 -109 -74 -12 -54 -14 -141 -5 -176 8 -28
54 -44 136 -46 l63 -2 3 31 c3 34 -12 44 -71 44 -31 0 -51 34 -42 76 3 13 7
35 10 48 4 20 13 24 55 30 49 7 50 7 50 41 0 33 -2 35 -32 34 -18 -1 -44 -4
-58 -6z"/>
<path d="M1292 562 c-11 -7 -13 -41 -10 -150 2 -77 6 -143 10 -147 4 -4 45 -4
92 0 l86 7 0 37 c0 36 0 36 -42 36 l-43 0 -5 110 -5 110 -35 3 c-19 1 -41 -2
-48 -6z"/>
<path d="M1559 563 c-18 -4 -31 -47 -18 -60 4 -4 -2 -44 -15 -88 -13 -44 -26
-97 -30 -118 l-7 -37 36 0 c28 0 38 5 47 25 20 45 98 48 108 5 4 -19 13 -26
35 -28 53 -4 56 4 40 108 -9 52 -20 119 -26 148 l-10 52 -72 -1 c-40 -1 -79
-3 -88 -6z m95 -140 c7 -32 6 -33 -23 -33 -17 0 -31 1 -31 3 0 2 7 25 17 52
17 52 22 49 37 -22z"/>
<path d="M1860 557 c-53 -14 -70 -40 -70 -109 0 -41 3 -48 23 -52 12 -3 34 -7
50 -11 39 -8 34 -32 -10 -44 -21 -6 -44 -11 -51 -11 -11 0 -9 -38 4 -62 6 -9
125 20 150 37 23 15 39 73 29 105 -3 11 -19 21 -38 25 -57 11 -67 16 -67 30 0
19 32 35 70 35 29 0 31 2 28 33 -3 29 -6 32 -38 34 -19 1 -55 -4 -80 -10z"/>
<path d="M2163 564 c-8 -4 -13 -25 -13 -55 0 -48 -1 -49 -30 -49 -29 0 -30 1
-30 50 l0 50 -40 0 -40 0 0 -150 0 -150 40 0 40 0 0 55 c0 54 0 55 29 55 29 0
30 -2 33 -52 l3 -53 35 0 35 0 0 150 0 150 -25 2 c-14 1 -31 -1 -37 -3z"/>
<path d="M1393 239 c-27 -7 -47 -18 -55 -32 -13 -23 -18 -170 -6 -182 3 -4 36
-12 73 -18 56 -9 68 -9 75 3 19 30 11 50 -19 50 -53 0 -61 8 -61 60 0 52 6 60
54 70 25 4 31 11 31 30 0 29 -25 34 -92 19z"/>
<path d="M1512 242 c-10 -7 -11 -35 -6 -125 8 -132 1 -124 98 -111 43 6 46 9
46 36 0 24 -4 29 -22 28 -46 -4 -47 -3 -50 88 -3 85 -4 87 -28 90 -14 1 -31
-2 -38 -6z"/>
<path d="M1728 243 c-18 -4 -22 -19 -18 -56 1 -10 -5 -39 -14 -65 -8 -26 -18
-64 -22 -84 -6 -37 -5 -38 24 -38 20 0 31 6 35 19 10 38 87 34 87 -5 0 -15 37
-19 56 -6 11 7 -16 207 -31 231 -6 11 -82 13 -117 4z m62 -72 c0 -5 3 -23 6
-40 6 -27 4 -31 -15 -31 -23 0 -24 3 -15 49 6 28 24 45 24 22z"/>
<path d="M1917 243 c-16 -4 -17 -16 -15 -121 l3 -117 28 -3 c27 -3 27 -2 27
52 0 65 12 72 28 18 19 -64 31 -74 77 -64 l40 8 2 112 c1 61 -2 114 -6 116 -4
3 -17 2 -29 -1 -17 -4 -22 -13 -23 -37 0 -17 -4 -40 -8 -50 -6 -15 -11 -7 -25
37 -17 54 -20 57 -49 56 -18 -1 -40 -3 -50 -6z"/>
<path d="M2180 237 c-47 -13 -57 -28 -59 -94 -1 -29 2 -32 39 -38 58 -10 49
-45 -11 -45 -16 0 -20 -6 -17 -27 3 -32 23 -33 94 -7 36 13 43 20 49 50 8 43
-4 60 -50 68 -19 4 -35 10 -35 14 1 18 18 30 45 34 24 2 31 8 33 31 4 31 -11
34 -88 14z"/>
<path d="M1228 189 c-10 -5 -18 -19 -18 -29 0 -11 -4 -20 -10 -20 -5 0 -10 -7
-10 -15 0 -8 5 -15 10 -15 6 0 10 -13 10 -30 0 -23 4 -30 20 -30 16 0 20 7 20
30 0 18 6 33 15 36 8 4 15 10 15 15 0 5 -7 9 -15 9 -8 0 -15 7 -15 15 0 8 7
15 15 15 8 0 15 7 15 15 0 17 -27 19 -52 4z"/>
<path d="M1102 149 c-20 -7 -23 -15 -20 -51 3 -42 4 -43 42 -46 43 -4 56 7 56
50 0 28 -23 58 -43 57 -7 0 -22 -4 -35 -10z m38 -49 c0 -20 -5 -30 -15 -30
-15 0 -21 40 -8 53 14 15 23 6 23 -23z"/>
</g>
</svg>
